/vscmnt/brussel_pixiu_data/_data_brussel/112/vsc11236/PredSimResults/SUBJ10mtu3D/weighted-LRposFixed/expIG/worker_02.mot
version=1
nRows=5
nColumns=50
inDegrees=yes
endheader
                time	         pelvis_tilt	         pelvis_list	     pelvis_rotation	           pelvis_tx	           pelvis_ty	           pelvis_tz	       hip_flexion_r	     hip_adduction_r	      hip_rotation_r	        knee_angle_r	       ankle_angle_r	         mtp_angle_r	       hip_flexion_l	     hip_adduction_l	      hip_rotation_l	        knee_angle_l	       ankle_angle_l	         mtp_angle_l	    lumbar_extension	      lumbar_bending	     lumbar_rotation	 ercspn_r/activation	 intobl_r/activation	 extobl_r/activation	    abd_r/activation	    add_r/activation	hamstrings_r/activation	bifemsh_r/activation	glut_max_r/activation	iliopsoas_r/activation	rect_fem_r/activation	  vasti_r/activation	gastroc_r/activation	 soleus_r/activation	tib_ant_r/activation	 ercspn_l/activation	 intobl_l/activation	 extobl_l/activation	    abd_l/activation	    add_l/activation	hamstrings_l/activation	bifemsh_l/activation	glut_max_l/activation	iliopsoas_l/activation	rect_fem_l/activation	  vasti_l/activation	gastroc_l/activation	 soleus_l/activation	tib_ant_l/activation	
          3.00000003	        -11.73917069	          1.67270773	         -5.99482315	          3.39000003	          0.84420015	         -0.01909697	         26.33281332	          5.31454860	          1.82398629	        -58.19795211	        -21.75883829	         22.58072619	         27.29700554	          3.31020175	         11.71158534	         -3.35287842	          3.92954651	          2.99097087	         -1.52168448	         -3.04684087	         -4.41523766	          0.12696699	          0.00999999	          0.01333332	          0.05482547	          0.16429657	          0.06727671	          0.02937550	          0.00999999	          0.07864219	          0.46170329	          0.22262794	          0.17808569	          0.16630662	          0.00999999	          0.18371291	          0.04898271	          0.01232616	          0.17189363	          0.26635025	          0.21167842	          0.00999999	          0.04864641	          0.18531663	          0.16093176	          0.02069087	          0.01125049	          0.01466030	          0.30075246	
          3.02000003	        -11.82351896	          1.09261116	         -4.53148990	          3.41419390	          0.83686817	         -0.02042348	         24.52110516	          5.08911549	          0.11564384	        -58.20313884	        -22.81843790	         26.66718953	         27.46495915	          3.48962668	         10.94634710	         -5.39671680	          3.84343595	          2.30044314	         -1.30734047	         -3.22096865	         -3.83002636	          0.11543021	          0.00999999	          0.00999999	          0.04111910	          0.12608489	          0.05045753	          0.02203163	          0.00999999	          0.10205106	          0.34627747	          0.16697096	          0.17757710	          0.13318283	          0.00999999	          0.13778468	          0.03673703	          0.00999999	          0.17287810	          0.19976269	          0.18160584	          0.11640818	          0.08354493	          0.13898747	          0.12069882	          0.01551816	          0.01333335	          0.01333332	          0.31050723	
          3.04000003	        -11.88450269	          0.49001367	         -2.99792102	          3.43945612	          0.83090502	         -0.02147829	         23.07716316	          4.85878490	         -1.93398543	        -58.55608757	        -24.31493227	         28.29355718	         27.18829221	          3.73106621	         10.68973683	         -7.85205539	          3.76899863	          1.76953658	         -0.90473936	         -3.49215659	         -3.26265282	          0.16542297	          0.04890313	          0.00999999	          0.03083932	          0.16678463	          0.03784315	          0.01652372	          0.01561854	          0.23545073	          0.25970810	          0.12522822	          0.13318283	          0.09988712	          0.00999999	          0.10333851	          0.02755278	          0.00999999	          0.22601074	          0.14982202	          0.14094777	          0.15706488	          0.21306161	          0.10424060	          0.09052411	          0.01163862	          0.01000001	          0.00999999	          0.33825716	
          3.06000003	        -11.93747031	         -0.01737003	         -1.45259224	          3.46435313	          0.82815467	         -0.02224222	         22.14130160	          4.58817666	         -3.98310506	        -59.00713999	        -26.66626495	         27.02933155	         26.95829089	          4.08411252	         11.21621433	        -10.62460550	          5.06154876	          1.35061136	         -0.50743829	         -3.94218354	         -2.71661068	          0.19862619	          0.15165226	          0.00999999	          0.02312949	          0.12508847	          0.02838236	          0.01239279	          0.03666879	          0.38426686	          0.19478108	          0.09392116	          0.09988712	          0.07491534	          0.00999999	          0.12175361	          0.02066458	          0.00999999	          0.26038799	          0.18282852	          0.10913170	          0.11779866	          0.29054501	          0.07818045	          0.06789309	          0.01053468	          0.03234021	          0.00999999	          0.25369287	
          3.08000003	        -11.97655807	         -0.58008019	          0.00031370	          3.48848014	          0.82870626	         -0.02276618	         21.66347936	          4.47027790	         -5.84009961	        -59.45998243	        -29.32878197	         22.79171795	         26.72536965	          4.34518017	         12.16514048	        -13.45248403	          6.85750527	          1.19825324	         -0.17651791	         -4.29243003	         -2.22565727	          0.17976694	          0.20637627	          0.00999999	          0.03160491	          0.09381635	          0.05575775	          0.46009187	          0.02750160	          0.50083074	          0.14608581	          0.07044087	          0.07491534	          0.05618650	          0.08614406	          0.12780109	          0.01549844	          0.00999999	          0.27139505	          0.23998341	          0.09941631	          0.08834899	          0.26031220	          0.05863534	          0.05091981	          0.00999999	          0.04976634	          0.00999999	          0.19026965	
